#N canvas 121 165 719 693 12;
#X obj 71 439 osc~ 2000;
#X obj 75 611 dac~;
#X obj 117 197 bng 19 250 50 0 empty empty empty 0 -10 0 12 #fcfcfc #000000 #000000;
#X obj 82 520 *~;
#X obj 164 350 vline~;
#X obj 256 449 pow~ 4;
#X msg 177 276 0 \, 1 5 \, 0 100 10;
#X obj 197 159 r chirp;
#X connect 0 0 3 0;
#X connect 2 0 6 0;
#X connect 3 0 1 0;
#X connect 3 0 1 1;
#X connect 4 0 5 0;
#X connect 5 0 3 1;
#X connect 6 0 4 0;
#X connect 7 0 6 0;
