#N canvas 703 361 719 693 12;
#X obj 71 439 osc~ 2000;
#X obj 75 611 dac~;
#X obj 82 520 *~;
#X obj 180 353 vline~;
#X obj 236 446 pow~ 4;
#X obj 177 99 r chirp;
#X obj 177 145 route note;
#X obj 180 191 unpack;
#X obj 204 248 f;
#X obj 77 227 t b f;
#X msg 181 295 0 5 \, \$1 5 \, 0 100 10;
#X obj 370 454 osc~ 2000;
#X obj 479 368 vline~;
#X obj 535 461 pow~ 4;
#X obj 465 166 bang;
#X obj 382 522 *~;
#X msg 480 310 0 5 \, 0.1 5 \, 0 100 10;
#X connect 0 0 2 0;
#X connect 2 0 1 0;
#X connect 2 0 1 1;
#X connect 3 0 4 0;
#X connect 4 0 2 1;
#X connect 5 0 6 0;
#X connect 5 0 14 0;
#X connect 6 0 7 0;
#X connect 7 0 9 0;
#X connect 7 1 8 1;
#X connect 8 0 10 0;
#X connect 9 0 8 0;
#X connect 9 1 0 0;
#X connect 10 0 3 0;
#X connect 11 0 15 0;
#X connect 12 0 13 0;
#X connect 13 0 15 1;
#X connect 14 0 16 0;
#X connect 15 0 1 1;
#X connect 16 0 12 0;
