#N canvas 1029 285 615 529 12;
#X obj 30 117 metro 1000;
#X obj 32 376 s;
#X obj 28 26 r \$0-rec;
#X obj 329 303 s \$0-tick;
#X msg 186 140 symbol \$1-rec;
#X obj 286 367 s \$0-count;
#X obj 29 65 route trigger interval destination reset;
#X msg 237 99 0;
#X obj 36 229 f;
#X obj 56 285 + 1;
#X connect 0 0 3 0;
#X connect 0 0 8 0;
#X connect 2 0 6 0;
#X connect 4 0 1 1;
#X connect 6 0 0 0;
#X connect 6 1 0 1;
#X connect 6 2 4 0;
#X connect 6 3 7 0;
#X connect 7 0 8 1;
#X connect 8 0 1 0;
#X connect 8 0 9 0;
#X connect 8 0 5 0;
#X connect 9 0 8 1;
