#N canvas 56 699 1074 528 12;
#X obj 38 73 ctlin;
#N canvas 798 469 719 611 channel_control_route 0;
#X obj 108 147 inlet value;
#X obj 213 150 inlet ctl;
#X obj 316 150 inlet chnl;
#X obj 422 142 inlet ctlsel;
#X obj 540 144 inlet chnlsel;
#X obj 109 276 spigot;
#X obj 184 222 == -1;
#X obj 102 387 spigot;
#X obj 193 332 == -1;
#X obj 101 486 outlet;
#X connect 0 0 5 0;
#X connect 1 0 6 0;
#X connect 2 0 8 0;
#X connect 3 0 6 1;
#X connect 4 0 8 1;
#X connect 5 0 7 0;
#X connect 6 0 5 1;
#X connect 7 0 9 0;
#X connect 8 0 7 1;
#X restore 33 144 pd channel_control_route;
#N canvas 685 653 629 502 indexer 0;
#X obj 42 41 inlet value;
#X obj 41 88 / 127;
#X obj 40 197 pow 1;
#X obj 169 132 clip 0;
#X obj 176 66 inlet expscale;
#X obj 42 309 expr pow($f1 \, $f2) / (pow($f1 \, $f2) + pow(1-$f1 \, $f2));
#X obj 442 115 inlet easeScale;
#X msg 363 175 1;
#X obj 361 116 loadbang;
#X text 158 262 todo: optimize;
#X obj 43 389 outlet;
#X connect 0 0 1 0;
#X connect 1 0 2 0;
#X connect 2 0 5 0;
#X connect 3 0 2 1;
#X connect 4 0 3 0;
#X connect 5 0 10 0;
#X connect 6 0 5 1;
#X connect 7 0 5 1;
#X connect 8 0 7 0;
#X restore 176 211 pd indexer;
#N canvas 835 725 388 275 map 0;
#X obj 45 112 inlet v;
#X obj 191 34 inlet min;
#X obj 284 29 inlet max;
#X obj 51 211 outlet;
#X obj 49 159 expr $f2 + $f1 * ($f3 - $f2);
#X msg 144 127 0;
#X msg 240 129 127;
#X obj 145 86 loadbang;
#X connect 0 0 4 0;
#X connect 1 0 4 1;
#X connect 2 0 4 2;
#X connect 4 0 3 0;
#X connect 5 0 4 1;
#X connect 6 0 4 2;
#X connect 7 0 5 0;
#X connect 7 0 6 0;
#X restore 299 260 pd map;
#N canvas 880 926 416 297 message 0;
#X obj 46 37 inlet note;
#X obj 140 36 inlet msg;
#X obj 44 132 list prepend;
#X obj 41 176 list trim;
#X obj 38 237 outlet;
#X obj 232 39 loadbang;
#X msg 229 75 amount;
#X msg 45 95 \$1;
#X connect 0 0 7 0;
#X connect 1 0 2 1;
#X connect 2 0 3 0;
#X connect 3 0 4 0;
#X connect 5 0 6 0;
#X connect 6 0 2 1;
#X connect 7 0 2 0;
#X restore 301 303 pd message;
#X obj 303 361 s;
#X msg 410 302 symbol \$1-rec;
#X obj 180 44 r \$0-rec;
#X obj 191 85 route ctl channel exp ease x1 x2 message destination raw_dest, f 62;
#X obj 539 384 s;
#X obj 555 178 symbol;
#X connect 0 0 1 0;
#X connect 0 1 1 1;
#X connect 0 2 1 2;
#X connect 1 0 2 0;
#X connect 2 0 3 0;
#X connect 3 0 4 0;
#X connect 3 0 9 0;
#X connect 4 0 5 0;
#X connect 6 0 5 1;
#X connect 7 0 8 0;
#X connect 8 0 1 3;
#X connect 8 1 1 4;
#X connect 8 2 2 1;
#X connect 8 3 2 2;
#X connect 8 4 3 1;
#X connect 8 5 3 2;
#X connect 8 6 4 1;
#X connect 8 7 6 0;
#X connect 8 8 10 0;
#X connect 10 0 9 1;
