#N canvas 952 603 926 610 12;
#X obj 74 219 *~;
#X obj 73 279 *~;
#X obj 456 15 r \$0-rec;
#X obj 37 21 catch~ \$0-inl;
#X obj 279 16 catch~ \$0-inr;
#X obj 267 218 *~;
#X obj 266 278 *~;
#X obj 457 51 route fb level lenl lenr destination;
#X obj 87 410 lib/simple_router;
#X obj 455 90 lib/control -1 1;
#X obj 504 121 lib/control -1 1;
#X obj 550 156 lib/control 0 2000;
#X obj 592 192 lib/control 0 2000;
#X obj 46 112 delwrite~ \$0-dell 2000;
#X obj 73 162 vd~ \$0-dell 1000;
#X obj 272 181 vd~ \$0-delr 1000;
#X obj 239 111 delwrite~ \$0-delr 2000;
#X obj 87 189 r~ \$0-fb;
#X obj 100 243 r~ \$0-level;
#X obj 446 143 s~ \$0-fb;
#X obj 504 181 s~ \$0-level;
#X connect 0 0 1 0;
#X connect 0 0 13 0;
#X connect 1 0 8 0;
#X connect 2 0 7 0;
#X connect 3 0 13 0;
#X connect 4 0 16 0;
#X connect 5 0 6 0;
#X connect 5 0 16 0;
#X connect 6 0 8 1;
#X connect 7 0 9 0;
#X connect 7 1 10 0;
#X connect 7 2 11 0;
#X connect 7 3 12 0;
#X connect 7 4 8 2;
#X connect 9 0 19 0;
#X connect 10 0 20 0;
#X connect 11 0 14 0;
#X connect 12 0 15 0;
#X connect 14 0 0 0;
#X connect 15 0 5 0;
#X connect 17 0 0 1;
#X connect 17 0 5 1;
#X connect 18 0 1 1;
#X connect 18 0 6 1;
