#N canvas 1370 688 612 418 12;
#X obj 45 51 catch~ \$0-in;
#X obj 74 219 *~;
#X obj 73 279 *~;
#X obj 285 87 route fb level len;
#X obj 285 136 clip -1 1;
#X obj 328 170 clip -1 1;
#X obj 46 112 delwrite~ \$0-del 2000;
#X obj 369 212 clip 0 2000;
#X msg 286 205 \$1 10;
#X msg 329 246 \$1 10;
#X msg 369 281 \$1 10;
#X obj 72 340 throw~ masterl;
#X obj 197 341 throw~ masterr;
#X obj 284 51 r \$0-rec;
#X obj 73 162 vd~ \$0-del 1000;
#X obj 285 252 line~;
#X obj 317 301 line~;
#X obj 373 330 line~;
#X connect 0 0 6 0;
#X connect 1 0 2 0;
#X connect 1 0 6 0;
#X connect 2 0 11 0;
#X connect 2 0 12 0;
#X connect 3 0 4 0;
#X connect 3 1 5 0;
#X connect 3 2 7 0;
#X connect 4 0 8 0;
#X connect 5 0 9 0;
#X connect 7 0 10 0;
#X connect 8 0 15 0;
#X connect 9 0 16 0;
#X connect 10 0 17 0;
#X connect 13 0 3 0;
#X connect 14 0 1 0;
#X connect 15 0 1 1;
#X connect 16 0 2 1;
#X connect 17 0 14 0;
