#N canvas 514 239 868 527 12;
#X obj 66 250 pd-mkmr/effects/fx.downsample~;
#X obj 164 164 lib/control 20 44100;
#X obj 416 150 select samphold linear cosine cubic;
#X msg 416 181 0;
#X msg 467 181 1;
#X msg 519 181 2;
#X msg 571 181 3;
#X obj 103 340 pd-mkmr/effects/fx.downsample~;
#X obj 74 86 catch~ \$0-inl;
#X obj 102 283 catch~ \$0-inr;
#X obj 55 414 lib/simple_router;
#X obj 299 37 r \$0-rec;
#X obj 300 83 route rate type destination;
#X msg 190 90 44100;
#X obj 182 40 loadbang;
#X obj 357 119 symbol;
#X connect 0 0 10 0;
#X connect 1 0 0 1;
#X connect 1 0 7 1;
#X connect 2 0 3 0;
#X connect 2 1 4 0;
#X connect 2 2 5 0;
#X connect 2 3 6 0;
#X connect 3 0 0 2;
#X connect 3 0 7 2;
#X connect 4 0 0 2;
#X connect 4 0 7 2;
#X connect 5 0 0 2;
#X connect 5 0 7 2;
#X connect 6 0 0 2;
#X connect 6 0 7 2;
#X connect 7 0 10 1;
#X connect 8 0 0 0;
#X connect 9 0 7 0;
#X connect 11 0 12 0;
#X connect 12 0 1 0;
#X connect 12 1 15 0;
#X connect 12 2 10 2;
#X connect 13 0 1 0;
#X connect 14 0 13 0;
#X connect 15 0 2 0;
