#N canvas 654 517 1004 752 12;
#X obj 430 75 soundfiler;
#X obj 432 209 r drumz;
#X msg 33 78 read -resize drumz/Bongo02.wav bongo02;
#X msg 33 118 read -resize drumz/BongoShaker.wav bongo_shak;
#X msg 33 158 read -resize drumz/HiHatOpen01.wav ohh;
#X msg 33 198 read -resize drumz/HiHatClosed01.wav clhh;
#X msg 33 238 read -resize drumz/SnareDrum01.wav snare;
#X msg 33 278 read -resize drumz/KickDrum02.wav kick;
#X msg 33 318 read -resize drumz/RimShot01.wav rimshot;
#X msg 33 358 read -resize drumz/Tom.wav tom;
#X obj 613 71 array define bongo02;
#X obj 613 111 array define bongo_shak;
#X obj 613 151 array define ohh;
#X obj 613 191 array define clhh;
#X obj 613 231 array define snare;
#X obj 614 271 array define kick;
#X obj 613 311 array define rimshot;
#X obj 613 351 array define tom;
#X obj 16 423 tabplay~ bongo02;
#X obj 100 432 tabplay~ bongo_shak;
#X obj 275 425 tabplay~ ohh;
#X obj 422 424 tabplay~ clhh;
#X obj 524 426 tabplay~ snare;
#X obj 624 426 tabplay~ kick;
#X obj 724 426 tabplay~ rimshot;
#X obj 824 426 tabplay~ tom;
#X obj 323 370 route bongo bongo_shak ohh clhh snare kick rimshot tom;
#X obj 26 544 dac~;
#X obj 32 25 loadbang;
#X connect 1 0 26 0;
#X connect 2 0 0 0;
#X connect 3 0 0 0;
#X connect 4 0 0 0;
#X connect 5 0 0 0;
#X connect 6 0 0 0;
#X connect 7 0 0 0;
#X connect 8 0 0 0;
#X connect 9 0 0 0;
#X connect 18 0 27 0;
#X connect 18 0 27 1;
#X connect 19 0 27 0;
#X connect 19 0 27 1;
#X connect 20 0 27 0;
#X connect 20 0 27 1;
#X connect 21 0 27 0;
#X connect 21 0 27 1;
#X connect 22 0 27 0;
#X connect 22 0 27 1;
#X connect 23 0 27 0;
#X connect 23 0 27 1;
#X connect 24 0 27 0;
#X connect 24 0 27 1;
#X connect 25 0 27 0;
#X connect 25 0 27 1;
#X connect 26 0 18 0;
#X connect 26 1 19 0;
#X connect 26 2 20 0;
#X connect 26 3 21 0;
#X connect 26 4 22 0;
#X connect 26 5 23 0;
#X connect 26 6 24 0;
#X connect 26 7 25 0;
#X connect 28 0 2 0;
#X connect 28 0 3 0;
#X connect 28 0 4 0;
#X connect 28 0 5 0;
#X connect 28 0 6 0;
#X connect 28 0 7 0;
#X connect 28 0 8 0;
#X connect 28 0 9 0;
