#N canvas 1023 374 610 364 12;
#X obj 51 34 r \$0-rec;
#X obj 57 276 lib/aux_router;
#N canvas 121 165 739 708 noise_patch 0;
#X obj 297 166 samplerate~;
#X obj 337 124 loadbang;
#X obj 231 273 noise~;
#X obj 232 304 abs~;
#X obj 234 348 expr~ $v1 < $f2;
#X msg 335 299 0;
#X obj 252 200 / 44100;
#X obj 252 163 / 2;
#X obj 252 101 inlet;
#X obj 212 419 *~;
#X obj 111 342 noise~;
#X obj 205 531 outlet~;
#X connect 0 0 6 1;
#X connect 1 0 0 0;
#X connect 1 0 5 0;
#X connect 2 0 3 0;
#X connect 3 0 4 0;
#X connect 4 0 9 1;
#X connect 5 0 4 1;
#X connect 6 0 4 1;
#X connect 7 0 6 0;
#X connect 8 0 7 0;
#X connect 9 0 11 0;
#X connect 10 0 9 0;
#X restore 54 141 pd noise_patch;
#N canvas 121 165 739 708 noise_patch 0;
#X obj 297 166 samplerate~;
#X obj 337 124 loadbang;
#X obj 231 273 noise~;
#X obj 232 304 abs~;
#X obj 234 348 expr~ $v1 < $f2;
#X msg 335 299 0;
#X obj 252 200 / 44100;
#X obj 252 163 / 2;
#X obj 252 101 inlet;
#X obj 212 419 *~;
#X obj 111 342 noise~;
#X obj 205 531 outlet~;
#X connect 0 0 6 1;
#X connect 1 0 0 0;
#X connect 1 0 5 0;
#X connect 2 0 3 0;
#X connect 3 0 4 0;
#X connect 4 0 9 1;
#X connect 5 0 4 1;
#X connect 6 0 4 1;
#X connect 7 0 6 0;
#X connect 8 0 7 0;
#X connect 9 0 11 0;
#X connect 10 0 9 0;
#X restore 82 169 pd noise_patch;
#X obj 52 87 route freq amp destination fx-route fx-amount;
#X obj 110 203 lib/control 0 1;
#X obj 79 238 *~;
#X obj 44 240 *~;
#X connect 0 0 4 0;
#X connect 2 0 7 0;
#X connect 3 0 6 0;
#X connect 4 0 2 0;
#X connect 4 0 3 0;
#X connect 4 1 5 0;
#X connect 4 2 1 2;
#X connect 4 3 1 3;
#X connect 4 4 1 4;
#X connect 5 0 6 1;
#X connect 5 0 7 1;
#X connect 6 0 1 1;
#X connect 7 0 1 0;
