#N canvas 228 336 509 490 12;
#X obj 55 43 r \$0-rec;
#X obj 27 262 %;
#X obj 67 299 select 0;
#X obj 32 146 f;
#X obj 27 195 + 1;
#X obj 69 390 lib/message_sender;
#X obj 258 399 s \$0-tick;
#X obj 93 348 spigot;
#X obj 299 144 loadbang;
#X msg 299 173 1;
#X obj 59 89 route tick n message destination toggle;
#X connect 0 0 10 0;
#X connect 1 0 3 1;
#X connect 2 0 7 0;
#X connect 3 0 4 0;
#X connect 3 0 2 0;
#X connect 4 0 1 0;
#X connect 7 0 5 0;
#X connect 7 0 6 0;
#X connect 8 0 9 0;
#X connect 9 0 7 1;
#X connect 10 0 3 0;
#X connect 10 1 1 1;
#X connect 10 2 5 1;
#X connect 10 3 5 2;
#X connect 10 4 7 1;
