#N canvas 1047 338 738 365 12;
#X obj 87 301 lib/aux_router;
#X obj 339 62 route gain destination fx_route fx_amount;
#X obj 33 40 catch~ \$0-inl;
#X obj 222 37 catch~ \$0-inr;
#X obj 48 113 lib/control -1 1;
#X obj 235 112 lib/control -1 1;
#X obj 31 156 *~;
#X obj 218 157 *~;
#X obj 338 24 r \$0-rec;
#X connect 1 0 4 0;
#X connect 1 0 5 0;
#X connect 1 1 0 2;
#X connect 1 2 0 3;
#X connect 1 3 0 4;
#X connect 2 0 6 0;
#X connect 3 0 7 0;
#X connect 4 0 6 1;
#X connect 5 0 7 1;
#X connect 6 0 0 0;
#X connect 7 0 0 1;
#X connect 8 0 1 0;
