#N canvas 348 619 805 380 12;
#X obj 41 54 catch~ \$0-inl;
#X obj 230 51 catch~ \$0-inr;
#X obj 56 127 lib/control -1 1;
#X obj 243 126 lib/control -1 1;
#X obj 39 170 *~;
#X obj 226 171 *~;
#X obj 486 99 r \$0-rec;
#X obj 486 163 route gain destination;
#X obj 55 253 lib/simple_router;
#X connect 0 0 4 0;
#X connect 1 0 5 0;
#X connect 2 0 4 1;
#X connect 3 0 5 1;
#X connect 4 0 8 0;
#X connect 5 0 8 1;
#X connect 6 0 7 0;
#X connect 7 0 3 0;
#X connect 7 0 2 0;
#X connect 7 1 8 2;
