#N canvas 64 107 860 528 12;
#X obj 124 61 loadbang;
#X obj 124 425 send hey;
#X obj 121 122 metro 1000;
#X msg 123 88 1;
#X obj 445 187 print;
#X msg 417 72 hey tester loaded;
#X obj 217 126 metro 750;
#X msg 217 199 1;
#X obj 309 123 metro 666;
#X msg 310 197 heyi;
#X obj 246 337 symbol;
#X connect 0 0 3 0;
#X connect 0 0 5 0;
#X connect 2 0 1 0;
#X connect 3 0 2 0;
#X connect 3 0 6 0;
#X connect 3 0 8 0;
#X connect 5 0 4 0;
#X connect 6 0 7 0;
#X connect 7 0 1 0;
#X connect 8 0 9 0;
#X connect 9 0 10 0;
#X connect 10 0 1 0;
