#N canvas 64 107 450 300 12;
#X obj 124 61 loadbang;
#X obj 122 162 send hey;
#X obj 121 122 metro 1000;
#X msg 123 88 1;
#X obj 262 110 print;
#X msg 257 67 hey tester loaded;
#X connect 0 0 3 0;
#X connect 0 0 5 0;
#X connect 2 0 1 0;
#X connect 3 0 2 0;
#X connect 5 0 4 0;
