#N canvas 104 499 1111 682 12;
#X obj 104 59 r \$0-rec;
#X obj 102 180 unpack;
#X obj 103 234 ftom;
#X obj 162 180 unpack;
#X obj 97 415 lib/aux_router;
#X obj 169 231 * 127;
#X obj 144 259 * 127;
#X obj 105 118 route play playm sample speed start end destination fx-route fx-amount;
#X obj 101 307 lct/polysample~ samples/hello.wav;
#N canvas 179 223 450 300 dir 0;
#X obj 32 71 symbol;
#X msg 37 114 ../\$1;
#X obj 37 33 inlet;
#X obj 37 138 outlet;
#X connect 0 0 1 0;
#X connect 1 0 3 0;
#X connect 2 0 0 0;
#X restore 224 209 pd dir;
#X connect 0 0 7 0;
#X connect 1 0 2 0;
#X connect 1 1 6 0;
#X connect 2 0 8 0;
#X connect 3 0 8 0;
#X connect 3 1 5 0;
#X connect 5 0 8 1;
#X connect 6 0 8 1;
#X connect 7 0 1 0;
#X connect 7 1 3 0;
#X connect 7 2 9 0;
#X connect 7 3 8 3;
#X connect 7 4 8 4;
#X connect 7 5 8 5;
#X connect 7 6 4 2;
#X connect 7 7 4 3;
#X connect 7 8 4 4;
#X connect 8 0 4 0;
#X connect 8 1 4 1;
#X connect 9 0 8 2;
