#N canvas 193 613 915 615 12;
#X obj 58 145 lct/panner~;
#X obj 240 145 lct/panner~;
#X obj 55 66 catch~ \$0-inl;
#X obj 240 63 catch~ \$0-inr;
#X obj 73 372 lib/simple_router;
#X obj 423 171 r \$0-rec;
#X obj 420 205 route destination pan;
#X obj 446 296 expr if($f1 < 0 \, 0 \, $f1);
#X obj 644 286 expr if($f1 > 0 \, 1 \, 1+$f1);
#X connect 0 0 4 0;
#X connect 0 1 4 1;
#X connect 1 0 4 0;
#X connect 1 1 4 1;
#X connect 2 0 0 0;
#X connect 3 0 1 0;
#X connect 5 0 6 0;
#X connect 6 0 4 2;
#X connect 6 1 7 0;
#X connect 6 2 8 0;
#X connect 7 0 0 1;
#X connect 8 0 1 1;
