#N canvas 4 463 854 517 12;
#X obj 101 307 lct/polysynth~ 400 12 1000;
#X obj 104 59 r \$0-rec;
#X obj 102 180 unpack;
#X obj 103 234 ftom;
#X obj 155 180 unpack;
#X obj 105 118 route play playm cutoff attack release destination fx-route fx-amount;
#X obj 112 415 lib/aux_router;
#X obj 147 262 * 127;
#X obj 207 262 * 127;
#X connect 0 0 6 0;
#X connect 0 1 6 1;
#X connect 1 0 5 0;
#X connect 2 0 3 0;
#X connect 2 1 7 0;
#X connect 3 0 0 0;
#X connect 4 0 0 0;
#X connect 4 1 8 0;
#X connect 5 0 2 0;
#X connect 5 1 4 0;
#X connect 5 2 0 2;
#X connect 5 3 0 3;
#X connect 5 4 0 4;
#X connect 5 5 6 2;
#X connect 5 6 6 3;
#X connect 5 7 6 4;
#X connect 7 0 0 1;
#X connect 8 0 0 1;
