#N canvas 171 390 610 505 12;
#X obj 104 59 r \$0-rec;
#X obj 102 180 unpack;
#X obj 103 234 ftom;
#X obj 162 180 unpack;
#X obj 97 415 lib/aux_router;
#X obj 169 231 * 127;
#X obj 144 259 * 127;
#X obj 105 118 route play playm index ratio attack release destination fx_route fx_amount;
#X obj 101 307 lct/polyfm~ 20 1 12 350;
#X connect 0 0 7 0;
#X connect 1 0 2 0;
#X connect 1 1 6 0;
#X connect 2 0 8 0;
#X connect 3 0 8 0;
#X connect 3 1 5 0;
#X connect 5 0 8 1;
#X connect 6 0 8 1;
#X connect 7 0 1 0;
#X connect 7 1 3 0;
#X connect 7 2 8 2;
#X connect 7 3 8 3;
#X connect 7 4 8 4;
#X connect 7 5 8 5;
#X connect 7 6 4 2;
#X connect 7 7 4 3;
#X connect 7 8 4 4;
#X connect 8 0 4 0;
#X connect 8 1 4 1;
