#N canvas 1270 661 546 425 12;
#X obj 76 55 catch~ \$0-inl;
#X obj 182 58 catch~ \$0-inr;
#X obj 64 345 lib/simple_router;
#N canvas 826 495 687 500 filters 0;
#X obj 180 162 vcf~;
#X msg 101 97 10000;
#X obj 202 50 inlet~ soundr;
#X obj 80 52 inlet~ soundl;
#X obj 336 55 inlet f;
#X obj 511 52 inlet q;
#X obj 121 265 outlet~ l;
#X obj 204 266 outlet~ r;
#X obj 334 103 lib/control 0 20000;
#X obj 80 164 vcf~;
#X obj 511 98 clip 0 20;
#X connect 0 1 7 0;
#X connect 1 0 0 1;
#X connect 1 0 9 1;
#X connect 2 0 0 0;
#X connect 3 0 9 0;
#X connect 4 0 8 0;
#X connect 5 0 10 0;
#X connect 8 0 0 1;
#X connect 8 0 9 1;
#X connect 9 1 6 0;
#X connect 10 0 9 2;
#X connect 10 0 0 2;
#X restore 79 202 pd filters;
#X obj 297 126 route freq q destination;
#X obj 299 64 r \$0-rec;
#X connect 0 0 3 0;
#X connect 1 0 3 1;
#X connect 3 0 2 0;
#X connect 3 1 2 1;
#X connect 4 0 3 2;
#X connect 4 1 3 3;
#X connect 4 2 2 2;
#X connect 5 0 4 0;
