#N canvas 1213 185 785 407 12;
#X obj 37 50 catch~ masterl;
#X obj 171 51 catch~ masterr;
#X obj 38 211 *~;
#X obj 170 209 *~;
#X obj 40 300 dac~;
#X obj 300 143 line~;
#X msg 301 113 \$1 10;
#X obj 299 79 route amp;
#X obj 299 48 r \$0-rec;
#X obj 402 132 loadbang;
#X msg 391 197 1;
#X obj 38 255 hip~ 3;
#X obj 172 255 hip~ 3;
#X connect 0 0 2 0;
#X connect 1 0 3 0;
#X connect 2 0 11 0;
#X connect 3 0 12 0;
#X connect 5 0 3 1;
#X connect 5 0 2 1;
#X connect 6 0 5 0;
#X connect 7 0 6 0;
#X connect 8 0 7 0;
#X connect 9 0 10 0;
#X connect 10 0 6 0;
#X connect 11 0 4 0;
#X connect 12 0 4 1;
