#N canvas 1029 285 516 409 12;
#X obj 30 117 metro 1000;
#X obj 28 26 r \$0-rec;
#X obj 29 65 route trigger interval message destination;
#X obj 265 346 s \$0-tick;
#X obj 32 211 lib/message_sender, f 31;
#X connect 0 0 3 0;
#X connect 0 0 4 0;
#X connect 1 0 2 0;
#X connect 2 0 0 0;
#X connect 2 1 0 1;
#X connect 2 2 4 1;
#X connect 2 3 4 2;
