#N canvas 1029 285 614 599 12;
#X obj 30 117 metro 1000;
#X obj 18 346 s;
#X obj 28 26 r \$0-rec;
#X obj 29 65 route trigger interval message destination;
#X msg 114 284 set;
#X msg 24 196 play 550 0.1;
#X obj 101 376 list append;
#X obj 87 460 list trim;
#X obj 133 237 t b a;
#X obj 329 303 s \$0-tick;
#X msg 248 129 symbol \$1-rec;
#X connect 0 0 9 0;
#X connect 0 0 5 0;
#X connect 2 0 3 0;
#X connect 3 0 0 0;
#X connect 3 1 0 1;
#X connect 3 2 8 0;
#X connect 3 3 10 0;
#X connect 4 0 6 0;
#X connect 5 0 1 0;
#X connect 6 0 7 0;
#X connect 7 0 5 0;
#X connect 8 0 4 0;
#X connect 8 1 6 1;
#X connect 10 0 1 1;
