#N canvas 1029 285 516 409 12;
#X obj 30 117 metro 1000;
#X obj 18 346 s;
#X obj 28 26 r \$0-rec;
#X obj 29 65 route trigger interval message destination;
#X msg 24 196 play 550 0.1;
#X obj 329 303 s \$0-tick;
#X msg 248 129 symbol \$1-rec;
#N canvas 386 528 472 457 message_setter 0;
#X obj 197 20 inlet;
#X obj 101 387 outlet;
#X msg 181 100 set;
#X obj 168 192 list append;
#X obj 154 276 list trim;
#X obj 200 53 t b a;
#X connect 0 0 5 0;
#X connect 2 0 3 0;
#X connect 3 0 4 0;
#X connect 4 0 1 0;
#X connect 5 0 2 0;
#X connect 5 1 3 1;
#X restore 84 159 pd message_setter;
#X connect 0 0 5 0;
#X connect 0 0 4 0;
#X connect 2 0 3 0;
#X connect 3 0 0 0;
#X connect 3 1 0 1;
#X connect 3 2 7 0;
#X connect 3 3 6 0;
#X connect 4 0 1 0;
#X connect 6 0 1 1;
#X connect 7 0 4 0;
