#N canvas -3 300 956 318 12;
#X obj 42 163 print notein;
#X obj 41 59 notein;
#X obj 43 102 pack 0 0 0;
#X obj 149 100 pack 0 0 0;
#X obj 148 161 print ctlnin;
#X obj 147 57 ctlin;
#X obj 269 50 bendin;
#X obj 270 154 print bendin;
#X obj 271 93 pack 0 0;
#X obj 390 93 pack 0 0;
#X obj 388 50 pgmin;
#X obj 389 154 print pgmin;
#X obj 497 47 touchin;
#X obj 498 151 print touchin;
#X obj 499 90 pack 0 0;
#X obj 657 93 pack 0 0 0;
#X obj 655 50 polytouchin;
#X obj 656 154 print polytouchin;
#X obj 849 119 r \$0-rec;
#X obj 850 151 route midiin;
#X obj 812 191 spigot;
#X obj 812 251 print midiin;
#X obj 782 42 midiin;
#X obj 784 92 pack 0 0;
#X connect 1 0 2 0;
#X connect 1 1 2 1;
#X connect 1 2 2 2;
#X connect 2 0 0 0;
#X connect 3 0 4 0;
#X connect 5 0 3 0;
#X connect 5 1 3 1;
#X connect 5 2 3 2;
#X connect 6 0 8 0;
#X connect 6 1 8 1;
#X connect 8 0 7 0;
#X connect 9 0 11 0;
#X connect 10 0 9 0;
#X connect 10 1 9 1;
#X connect 12 0 14 0;
#X connect 12 1 14 1;
#X connect 14 0 13 0;
#X connect 15 0 17 0;
#X connect 16 0 15 0;
#X connect 16 1 15 1;
#X connect 16 2 15 2;
#X connect 18 0 19 0;
#X connect 19 0 20 1;
#X connect 20 0 21 0;
#X connect 22 0 23 0;
#X connect 22 1 23 1;
#X connect 23 0 20 0;
