#N canvas 70 124 766 420 12;
#X obj 57 62 catch~ \$0-inl;
#X obj 181 62 catch~ \$0-inr;
#X obj 59 295 lib/simple_router;
#X obj 84 150 pd-mkmr/effects/fx.phaser~;
#X obj 289 148 pd-mkmr/effects/fx.phaser~;
#X obj 539 55 r \$0-rec;
#X obj 541 97 route dl dr destination;
#X obj 541 129 sig~;
#X obj 542 168 lop~ 3;
#X obj 601 132 sig~;
#X obj 602 171 lop~ 3;
#X connect 0 0 3 0;
#X connect 1 0 4 0;
#X connect 3 0 2 0;
#X connect 4 0 2 1;
#X connect 5 0 6 0;
#X connect 6 0 7 0;
#X connect 6 1 9 0;
#X connect 6 2 2 2;
#X connect 7 0 8 0;
#X connect 8 0 3 1;
#X connect 9 0 10 0;
#X connect 10 0 4 1;
