#N canvas 411 188 624 651 12;
#X obj 63 16 r \$0-rec;
#X obj 67 551 lib/aux_router;
#X obj 65 276 poly 8 1;
#X obj 106 195 * 127;
#X obj 68 235 makenote 55 100;
#X obj 110 161 pow 0.5;
#X obj 70 456 clone -s 1 8 pd-mkmr/instruments/cello;
#X obj 61 355 pack f f f;
#X obj 64 126 unpack 0 0 1000;
#X obj 64 75 route play note_on note_off destination fx-route fx-amount;
#X obj 194 125 unpack 0 0;
#X msg 300 126 \$1 0;
#X obj 300 168 unpack;
#X connect 0 0 9 0;
#X connect 2 0 7 0;
#X connect 2 1 7 1;
#X connect 2 2 7 2;
#X connect 3 0 4 1;
#X connect 4 0 2 0;
#X connect 4 1 2 1;
#X connect 5 0 3 0;
#X connect 6 0 1 0;
#X connect 6 0 1 1;
#X connect 7 0 6 0;
#X connect 8 0 4 0;
#X connect 8 1 5 0;
#X connect 8 2 4 2;
#X connect 9 0 8 0;
#X connect 9 1 10 0;
#X connect 9 2 11 0;
#X connect 9 3 1 2;
#X connect 9 4 1 3;
#X connect 9 5 1 4;
#X connect 10 0 2 0;
#X connect 10 1 2 1;
#X connect 11 0 12 0;
#X connect 12 0 2 0;
#X connect 12 1 2 1;
