#N canvas 704 326 774 726 12;
#X obj 67 118 unpack;
#X obj 59 354 pack 0 0 0;
#X obj 65 276 poly 8 1;
#X obj 59 388 t l l;
#X msg 69 422 \$1 \$2;
#X obj 108 189 * 127;
#X msg 262 412 \$1 \$3;
#X obj 68 235 makenote 55 100;
#X obj 106 151 pow 0.5;
#X obj 51 43 inlet;
#X obj 75 554 outlet~;
#X obj 70 456 clone -s 1 8 \$1;
#X connect 0 0 7 0;
#X connect 0 1 8 0;
#X connect 1 0 3 0;
#X connect 2 0 1 0;
#X connect 2 1 1 1;
#X connect 2 2 1 2;
#X connect 3 0 4 0;
#X connect 3 1 6 0;
#X connect 4 0 11 0;
#X connect 5 0 7 1;
#X connect 6 0 11 1;
#X connect 7 0 2 0;
#X connect 7 1 2 1;
#X connect 8 0 5 0;
#X connect 9 0 0 0;
#X connect 11 0 10 0;
