#N canvas 185 502 495 262 12;
#X obj 63 16 r \$0-rec;
#X obj 64 75 route play destination fx_route fx_amount;
#X obj 63 182 lib/aux_router;
#X obj 62 130 mkmr_sus_wrap pd-mkmr/instruments/mct~;
#X connect 0 0 1 0;
#X connect 1 0 3 0;
#X connect 1 1 2 2;
#X connect 1 2 2 3;
#X connect 1 3 2 4;
#X connect 3 0 2 0;
#X connect 3 0 2 1;
