#N canvas 63 280 766 420 12;
#X obj 57 62 catch~ \$0-inl;
#X obj 181 62 catch~ \$0-inr;
#X obj 59 295 lib/simple_router;
#X obj 344 215 r \$0-rec;
#X obj 346 257 route destination;
#X obj 84 150 pd-mkmr/effects/fx.chorus~;
#X obj 289 148 pd-mkmr/effects/fx.chorus~;
#X connect 0 0 5 0;
#X connect 1 0 6 0;
#X connect 3 0 4 0;
#X connect 4 0 2 2;
#X connect 5 0 2 0;
#X connect 6 0 2 1;
