#N canvas 881 226 818 666 12;
#X obj 205 301 dac~;
#X obj 209 250 mode, f 11;
#X msg 415 168 0.1;
#X msg 314 168 3200;
#X msg 359 167 3;
#X connect 1 0 0 0;
#X connect 2 0 1 3;
#X connect 3 0 1 1;
#X connect 4 0 1 2;
