#N canvas 150 194 863 622 12;
#X obj 41 289 bp~ 440 1;
#X obj 158 239 expr atan(1)*4 * $f1 * $f2 / 6.91;
#X obj 43 343 *~;
#X obj 47 422 *~;
#X obj 491 276 lib/control 0 1;
#X obj 296 39 r \$0-rec;
#X obj 37 21 catch~ \$0-inl;
#X obj 147 23 catch~ \$0-inr;
#X obj 49 510 lib/simple_router;
#X obj 345 138 t b f;
#X obj 240 117 t f b;
#X obj 161 191 f 440;
#X obj 386 195 f 0.1;
#X obj 297 75 route freq time amp destination;
#X connect 0 0 2 0;
#X connect 1 0 0 2;
#X connect 1 0 2 1;
#X connect 2 0 3 0;
#X connect 3 0 8 0;
#X connect 3 0 8 1;
#X connect 4 0 3 1;
#X connect 5 0 13 0;
#X connect 6 0 0 0;
#X connect 7 0 0 0;
#X connect 9 0 11 0;
#X connect 9 1 12 0;
#X connect 10 0 11 0;
#X connect 10 1 12 0;
#X connect 11 0 1 0;
#X connect 11 0 0 1;
#X connect 12 0 1 1;
#X connect 13 0 10 0;
#X connect 13 1 9 0;
#X connect 13 2 4 0;
#X connect 13 3 8 2;
