#N canvas 626 626 454 458 12;
#X obj 28 26 r \$0-rec;
#X msg 39 280 play 550 0.1;
#N canvas 386 528 472 457 message_setter 0;
#X obj 197 20 inlet;
#X obj 101 387 outlet;
#X msg 181 100 set;
#X obj 168 192 list append;
#X obj 154 276 list trim;
#X obj 200 53 t b a;
#X connect 0 0 5 0;
#X connect 2 0 3 0;
#X connect 3 0 4 0;
#X connect 4 0 1 0;
#X connect 5 0 2 0;
#X connect 5 1 3 1;
#X restore 92 205 pd message_setter;
#X msg 150 310 symbol \$1-rec;
#X obj 28 356 s;
#X obj 29 65 route trigger time message destination;
#X obj 28 170 delay 1000;
#X obj 29 110 != 0;
#X obj 28 139 select 1;
#X connect 0 0 5 0;
#X connect 1 0 4 0;
#X connect 2 0 1 0;
#X connect 3 0 4 1;
#X connect 5 0 7 0;
#X connect 5 1 6 1;
#X connect 5 2 2 0;
#X connect 5 3 3 0;
#X connect 6 0 1 0;
#X connect 7 0 8 0;
#X connect 8 0 6 0;
