#N canvas 626 555 728 534 12;
#X obj 47 36 r \$0-rec;
#X obj 46 248 clone 1 lib/message_sender;
#X obj 46 107 route tick n_msgs message destination;
#X msg 70 172 resize \$1;
#X msg 29 177 all bang;
#X connect 0 0 2 0;
#X connect 2 0 4 0;
#X connect 2 1 3 0;
#X connect 2 2 1 1;
#X connect 2 3 1 2;
#X connect 3 0 1 0;
#X connect 4 0 1 0;
