#N canvas 1184 474 783 713 12;
#X obj 69 112 notein;
#X obj 59 274 pack;
#X obj 51 530 s;
#X obj 214 42 r \$0-rec;
#N canvas 654 638 607 510 opt_strip_note_off 0;
#X obj 69 48 inlet note_list;
#X obj 255 48 inlet note_off;
#X obj 85 364 outlet note_list;
#X obj 147 269 stripnote;
#X obj 86 198 spigot;
#X obj 145 198 spigot;
#X obj 146 231 unpack;
#X obj 146 299 pack;
#X obj 210 143 == 0;
#X obj 124 139 != 0;
#X msg 394 77 1;
#X obj 395 47 loadbang;
#X connect 0 0 4 0;
#X connect 0 0 5 0;
#X connect 1 0 8 0;
#X connect 1 0 9 0;
#X connect 3 0 7 0;
#X connect 3 1 7 1;
#X connect 4 0 2 0;
#X connect 5 0 6 0;
#X connect 6 0 3 0;
#X connect 6 1 3 1;
#X connect 7 0 2 0;
#X connect 8 0 5 1;
#X connect 9 0 4 1;
#X connect 10 0 9 0;
#X connect 10 0 8 0;
#X connect 11 0 10 0;
#X restore 61 308 pd opt_strip_note_off;
#N canvas 901 673 687 300 channel_router 0;
#X obj 198 51 inlet note channel;
#X obj 49 53 inlet notelist;
#X obj 398 53 inlet reqChannel;
#X obj 51 216 outlet notelist;
#X obj 54 167 spigot;
#X obj 129 113 == -1;
#X connect 0 0 5 0;
#X connect 1 0 4 0;
#X connect 2 0 5 1;
#X connect 4 0 3 0;
#X connect 5 0 4 1;
#X restore 51 374 pd channel_router;
#N canvas 975 758 450 300 ampmode 0;
#X obj 80 191 / 1;
#X obj 112 65 select 0 1;
#X msg 98 134 1;
#X msg 150 136 127;
#X obj 25 36 inlet velocity;
#X obj 162 35 inlet value;
#X obj 88 245 outlet veloramp;
#X connect 0 0 6 0;
#X connect 1 0 2 0;
#X connect 1 1 3 0;
#X connect 2 0 0 1;
#X connect 3 0 0 1;
#X connect 4 0 0 0;
#X connect 5 0 1 0;
#X restore 88 206 pd ampmode;
#N canvas 1102 743 622 429 freq_mode 0;
#X obj 33 285 outlet note_or_freq;
#X obj 25 73 inlet note;
#X obj 155 74 inlet freqmode;
#X obj 28 180 spigot;
#X obj 147 177 spigot;
#X obj 134 213 mtof;
#X obj 188 131 != 0;
#X obj 63 147 == 0;
#X obj 322 24 loadbang;
#X msg 325 63 0;
#X connect 1 0 3 0;
#X connect 1 0 4 0;
#X connect 2 0 6 0;
#X connect 2 0 7 0;
#X connect 3 0 0 0;
#X connect 4 0 5 0;
#X connect 5 0 0 0;
#X connect 6 0 4 1;
#X connect 7 0 3 1;
#X connect 8 0 9 0;
#X connect 9 0 7 0;
#X connect 9 0 6 0;
#X restore 65 160 pd freq_mode;
#X obj 173 84 route channel note_off freqmode ampmode destination message;
#X msg 449 219 symbol \$1-rec;
#N canvas 716 797 363 283 message 0;
#X obj 46 37 inlet note;
#X obj 140 36 inlet msg;
#X msg 45 95 \$1 \$2;
#X obj 44 132 list prepend;
#X obj 41 176 list trim;
#X obj 38 237 outlet;
#X msg 229 75 play;
#X obj 232 39 loadbang;
#X connect 0 0 2 0;
#X connect 1 0 3 1;
#X connect 2 0 3 0;
#X connect 3 0 4 0;
#X connect 4 0 5 0;
#X connect 6 0 3 1;
#X connect 7 0 6 0;
#X restore 51 439 pd message;
#X connect 0 0 7 0;
#X connect 0 1 6 0;
#X connect 0 2 5 1;
#X connect 1 0 4 0;
#X connect 3 0 8 0;
#X connect 4 0 5 0;
#X connect 5 0 10 0;
#X connect 6 0 1 1;
#X connect 7 0 1 0;
#X connect 8 0 5 2;
#X connect 8 1 4 1;
#X connect 8 2 7 1;
#X connect 8 3 6 1;
#X connect 8 4 9 0;
#X connect 8 5 10 1;
#X connect 9 0 2 1;
#X connect 10 0 2 0;
