#N canvas 168 290 838 745 12;
#X obj 142 213 osc~ 440;
#X obj 267 68 inlet partial_info;
#X obj 137 325 *~;
#X obj 131 435 *~;
#X obj 204 333 inlet amp;
#X obj 132 524 outlet~;
#X obj 204 392 lib/pow_env;
#X obj 294 267 pack 1 0;
#X obj 310 211 t b f;
#X obj 262 150 unpack 0 0 0;
#X obj 506 195 inlet curve;
#X connect 0 0 2 0;
#X connect 1 0 9 0;
#X connect 2 0 3 0;
#X connect 3 0 5 0;
#X connect 4 0 6 0;
#X connect 6 0 3 1;
#X connect 7 0 6 1;
#X connect 8 0 7 0;
#X connect 8 1 7 1;
#X connect 9 0 0 0;
#X connect 9 1 2 1;
#X connect 9 2 8 0;
#X connect 10 0 6 2;
