#N canvas 737 164 745 512 12;
#X obj 48 38 r \$0-rec;
#X obj 220 430 lib/aux_router;
#N canvas 170 257 665 520 noise 0;
#X obj 73 51 inlet amp;
#X obj 198 57 inlet params;
#X obj 63 453 outlet~ sound;
#X obj 108 258 noise~;
#X obj 67 319 *~;
#X obj 63 387 bp~ 300 0.1;
#X obj 159 95 unpack 0 0 0 0;
#X obj 64 351 *~;
#X obj 50 204 lib/pow_env;
#X obj 434 180 inlet curve;
#X obj 79 163 pack 1 0;
#X obj 100 130 t b f;
#X connect 0 0 8 0;
#X connect 1 0 6 0;
#X connect 3 0 4 1;
#X connect 4 0 7 0;
#X connect 5 0 2 0;
#X connect 6 0 5 1;
#X connect 6 1 5 2;
#X connect 6 2 11 0;
#X connect 6 3 7 1;
#X connect 7 0 5 0;
#X connect 8 0 4 0;
#X connect 9 0 8 2;
#X connect 10 0 8 1;
#X connect 11 0 10 0;
#X connect 11 1 10 1;
#X restore 86 382 pd noise;
#X obj 128 320 clone 1 perc_partial;
#X msg 111 279 resize \$1;
#X msg 66 190 all \$1;
#X obj 46 102 route amp n_partials partial_params noise_params destination fx_destination fx_amount curve, f 91;
#X msg 503 272 all \$1;
#X text 581 210 todo: clean this morass by reording routes;
#X connect 0 0 6 0;
#X connect 2 0 1 1;
#X connect 3 0 1 0;
#X connect 4 0 3 0;
#X connect 5 0 3 0;
#X connect 6 0 2 0;
#X connect 6 0 5 0;
#X connect 6 1 4 0;
#X connect 6 2 3 1;
#X connect 6 3 2 1;
#X connect 6 4 1 2;
#X connect 6 5 1 3;
#X connect 6 6 1 4;
#X connect 6 7 7 0;
#X connect 6 7 2 2;
#X connect 7 0 3 2;
