#N canvas 147 507 454 458 12;
#X obj 28 26 r \$0-rec;
#X obj 29 65 route trigger message destination;
#X msg 39 280 play 550 0.1;
#N canvas 386 528 472 457 message_setter 0;
#X obj 197 20 inlet;
#X obj 101 387 outlet;
#X msg 181 100 set;
#X obj 168 192 list append;
#X obj 154 276 list trim;
#X obj 200 53 t b a;
#X connect 0 0 5 0;
#X connect 2 0 3 0;
#X connect 3 0 4 0;
#X connect 4 0 1 0;
#X connect 5 0 2 0;
#X connect 5 1 3 1;
#X restore 92 205 pd message_setter;
#X obj 24 121 unpack 0 0;
#X msg 150 310 symbol \$1-rec;
#X obj 28 356 s;
#N canvas 997 714 552 548 ticker 0;
#X obj 21 32 inlet count;
#X obj 151 30 inlet interval;
#X obj 121 231 f;
#X obj 120 279 + 1;
#X obj 114 400 t b f;
#X obj 106 345 sel 0;
#X msg 198 310 0;
#X obj 56 465 outlet bang;
#X obj 40 168 delay 0;
#X obj 120 303 mod 2;
#X obj 158 232 - 1;
#X obj 31 63 t b f;
#X text 200 231 -1 because we have the first bang this part will bang immediately upon recieving a bang for n-1 times;
#X connect 0 0 11 0;
#X connect 1 0 8 1;
#X connect 2 0 3 0;
#X connect 3 0 9 0;
#X connect 4 0 8 0;
#X connect 4 1 2 1;
#X connect 5 0 6 0;
#X connect 5 1 4 0;
#X connect 6 0 2 1;
#X connect 8 0 2 0;
#X connect 8 0 7 0;
#X connect 9 0 5 0;
#X connect 10 0 9 1;
#X connect 11 0 8 0;
#X connect 11 1 10 0;
#X restore 20 172 pd ticker;
#X connect 0 0 1 0;
#X connect 1 0 4 0;
#X connect 1 1 3 0;
#X connect 1 2 5 0;
#X connect 2 0 6 0;
#X connect 3 0 2 0;
#X connect 4 0 7 0;
#X connect 4 1 7 1;
#X connect 5 0 6 1;
#X connect 7 0 2 0;
