#N canvas 932 193 969 516 12;
#X obj 63 16 r \$0-rec;
#X obj 78 433 lib/aux_router, f 24;
#X obj 64 75 route play destination fx_route fx_amount sample;
#X obj 125 383 *~ 1;
#X msg 275 281 all \$1;
#X msg 108 282 all \$1;
#X msg 184 285 all \$1;
#N canvas 1062 691 534 412 inc 0;
#X obj 142 73 inlet;
#X obj 276 134 i;
#X obj 274 172 + 1;
#X obj 272 222 % 8;
#X obj 276 59 loadbang;
#X msg 277 100 1;
#X obj 143 140 t b l;
#X obj 128 280 outlet;
#X obj 135 218 pack 0 0 0 0 0;
#X obj 160 174 unpack 0 0 0 0;
#X connect 0 0 6 0;
#X connect 1 0 2 0;
#X connect 2 0 3 0;
#X connect 3 0 1 1;
#X connect 3 0 8 0;
#X connect 4 0 5 0;
#X connect 5 0 1 0;
#X connect 6 0 1 0;
#X connect 6 1 9 0;
#X connect 8 0 7 0;
#X connect 9 0 8 1;
#X connect 9 1 8 2;
#X connect 9 2 8 3;
#X connect 9 3 8 4;
#X restore 55 227 pd inc;
#X obj 47 333 clone 12 sampleSlicerVoice;
#X obj 275 139 lib/sampleLoader;
#X connect 0 0 2 0;
#X connect 2 0 7 0;
#X connect 2 1 1 2;
#X connect 2 2 1 3;
#X connect 2 3 1 4;
#X connect 2 4 9 0;
#X connect 3 0 1 1;
#X connect 4 0 8 3;
#X connect 5 0 8 1;
#X connect 6 0 8 2;
#X connect 7 0 8 0;
#X connect 8 0 1 0;
#X connect 8 0 3 0;
#X connect 8 1 1 1;
#X connect 9 0 5 0;
#X connect 9 1 6 0;
#X connect 9 2 3 1;
#X connect 9 3 4 0;
