#N canvas 53 166 969 516 12;
#X obj 63 16 r \$0-rec;
#X obj 78 433 lib/aux_router;
#X obj 455 46 array define \$0-sl;
#X obj 639 46 array define \$0-sr;
#X obj 362 138 pack s f;
#X obj 414 82 loadbang;
#X obj 414 106 f \$0;
#X msg 367 168 read -resize \$1 \$2-sl \$2-sr;
#X obj 64 75 route play destination fx_route fx_amount sample;
#X obj 362 198 soundfiler;
#X obj 425 231 unpack f f f;
#X obj 506 281 expr if ($f1 == 1 \, 1 \, 0);
#X obj 125 383 *~ 1;
#X msg 252 294 all \$1;
#X obj 247 254 f \$0;
#X obj 245 204 loadbang;
#X msg 108 282 all \$1;
#X msg 184 285 all \$1;
#X msg 185 35 sample samples/comp1/1.wav;
#N canvas 1062 691 534 412 inc 0;
#X obj 142 73 inlet;
#X obj 276 134 i;
#X obj 274 172 + 1;
#X obj 272 222 % 8;
#X obj 276 59 loadbang;
#X msg 277 100 1;
#X obj 143 140 t b l;
#X obj 128 280 outlet;
#X obj 135 218 pack 0 0 0 0 0;
#X obj 160 174 unpack 0 0 0 0;
#X connect 0 0 6 0;
#X connect 1 0 2 0;
#X connect 2 0 3 0;
#X connect 3 0 1 1;
#X connect 3 0 8 0;
#X connect 4 0 5 0;
#X connect 5 0 1 0;
#X connect 6 0 1 0;
#X connect 6 1 9 0;
#X connect 8 0 7 0;
#X connect 9 0 8 1;
#X connect 9 1 8 2;
#X connect 9 2 8 3;
#X connect 9 3 8 4;
#X restore 55 227 pd inc;
#X obj 47 333 clone 8 sampleSlicerVoice;
#X connect 0 0 8 0;
#X connect 4 0 7 0;
#X connect 5 0 6 0;
#X connect 6 0 4 1;
#X connect 7 0 9 0;
#X connect 8 0 19 0;
#X connect 8 1 1 2;
#X connect 8 2 1 3;
#X connect 8 3 1 4;
#X connect 8 4 4 0;
#X connect 9 0 16 0;
#X connect 9 1 10 0;
#X connect 10 0 17 0;
#X connect 10 2 11 0;
#X connect 11 0 12 1;
#X connect 12 0 1 1;
#X connect 13 0 20 3;
#X connect 14 0 13 0;
#X connect 15 0 14 0;
#X connect 16 0 20 1;
#X connect 17 0 20 2;
#X connect 18 0 8 0;
#X connect 19 0 20 0;
#X connect 20 0 1 0;
#X connect 20 0 12 0;
#X connect 20 1 1 1;
