#N canvas 1101 523 701 615 12;
#N canvas 297 404 744 672 points_to_line 1;
#X text 463 54 perc -> perc;
#X obj 307 42 inlet size;
#X obj 31 145 *;
#X obj 144 147 *;
#X obj 308 257 -;
#X obj 304 313 *;
#X obj 418 273 inlet sr;
#X obj 298 357 / 1;
#X msg 33 488 \$1 \, \$2 \$3;
#X obj 29 411 pack 0 0 0;
#X obj 41 550 vline~;
#X obj 306 285 abs;
#X obj 235 383 * 1000;
#X obj 37 620 outlet~ pos;
#X obj 257 634 outlet~ env;
#X obj 257 573 vline~;
#X obj 258 493 pack 0 0;
#X obj 264 448 - 10;
#X obj 36 20 inlet start_end_perc_amp_pit;
#X obj 306 186 unpack 0 0 0 0;
#X obj 34 47 t l l;
#X msg 258 532 0 \, \$2 10 \, 0 10 \$1;
#X obj 181 418 / 1;
#X obj 399 216 clip 0.001 999999;
#X obj 33 77 unpack 0 0 0 0;
#X connect 1 0 3 1;
#X connect 1 0 2 1;
#X connect 1 0 5 1;
#X connect 2 0 9 0;
#X connect 3 0 9 1;
#X connect 4 0 11 0;
#X connect 5 0 7 0;
#X connect 6 0 7 1;
#X connect 7 0 12 0;
#X connect 8 0 10 0;
#X connect 9 0 8 0;
#X connect 10 0 13 0;
#X connect 11 0 5 0;
#X connect 12 0 22 0;
#X connect 15 0 14 0;
#X connect 16 0 21 0;
#X connect 17 0 16 0;
#X connect 18 0 20 0;
#X connect 19 0 4 0;
#X connect 19 1 4 1;
#X connect 19 2 16 1;
#X connect 19 3 23 0;
#X connect 20 0 24 0;
#X connect 20 1 19 0;
#X connect 21 0 15 0;
#X connect 22 0 17 0;
#X connect 22 0 9 2;
#X connect 23 0 22 1;
#X connect 24 0 2 0;
#X connect 24 1 3 0;
#X restore 96 130 pd points_to_line;
#X obj 90 42 inlet start_end;
#X obj 223 45 inlet samples;
#X obj 336 42 inlet sr;
#X obj 434 47 inlet dzero;
#X msg 412 145 set \$1-sl;
#X msg 511 146 set \$1-sr;
#X obj 246 266 tabread4~;
#X obj 92 266 tabread4~;
#X obj 111 391 *~;
#X obj 249 378 *~;
#X obj 114 458 outlet~;
#X obj 251 448 outlet~;
#X connect 0 0 8 0;
#X connect 0 0 7 0;
#X connect 0 1 9 1;
#X connect 0 1 10 1;
#X connect 1 0 0 0;
#X connect 2 0 0 1;
#X connect 3 0 0 2;
#X connect 4 0 5 0;
#X connect 4 0 6 0;
#X connect 5 0 8 0;
#X connect 6 0 7 0;
#X connect 7 0 10 0;
#X connect 8 0 9 0;
#X connect 9 0 11 0;
#X connect 10 0 12 0;
