#N canvas 827 314 766 674 12;
#X obj 338 203 lib/sampleLoader;
#X obj 66 75 r \$0-rec;
#X obj 92 456 lib/aux_router;
#N canvas 179 223 766 473 sound 1;
#X obj 150 304 *~ 1;
#X obj 396 242 inlet mono;
#X obj 49 355 outlet~;
#X obj 147 356 outlet~;
#X obj 48 255 tabread4~;
#X obj 175 259 tabread4~;
#X obj 21 42 inlet toggle_speed;
#X obj 517 50 inlet lname;
#X obj 618 46 inlet rname;
#X msg 516 124 set \$1;
#X msg 619 117 set \$1;
#X obj 218 50 inlet nframes;
#X obj 331 49 inlet sr;
#X obj 516 86 symbol;
#X obj 625 81 symbol;
#N canvas 283 725 721 499 line_generator 0;
#X obj 327 65 inlet nframe;
#X obj 454 67 inlet sr;
#X obj 79 34 inlet speed;
#X msg 81 310 0 \, \$1 \$2;
#X obj 81 340 line~;
#X obj 81 226 f;
#X obj 81 265 pack f f;
#X obj 67 427 outlet~ line;
#X obj 140 156 /;
#X obj 140 187 * 1000;
#X obj 108 127 t f f;
#X obj 140 231 / 1;
#X obj 207 189 t b f;
#X obj 75 81 t b f;
#X connect 0 0 10 0;
#X connect 1 0 8 1;
#X connect 2 0 13 0;
#X connect 3 0 4 0;
#X connect 4 0 7 0;
#X connect 5 0 6 0;
#X connect 6 0 3 0;
#X connect 8 0 9 0;
#X connect 9 0 11 0;
#X connect 10 0 5 1;
#X connect 10 1 8 0;
#X connect 11 0 6 1;
#X connect 12 0 11 0;
#X connect 12 1 11 1;
#X connect 13 0 5 0;
#X connect 13 1 12 0;
#X restore 56 136 pd line_generator;
#X connect 0 0 3 0;
#X connect 1 0 0 1;
#X connect 4 0 0 0;
#X connect 4 0 2 0;
#X connect 5 0 3 0;
#X connect 6 0 15 0;
#X connect 7 0 13 0;
#X connect 8 0 14 0;
#X connect 9 0 4 0;
#X connect 10 0 5 0;
#X connect 11 0 15 1;
#X connect 12 0 15 2;
#X connect 13 0 9 0;
#X connect 14 0 10 0;
#X connect 15 0 4 0;
#X connect 15 0 5 0;
#X restore 90 362 pd sound;
#X f 22;
#X obj 423 522 s \$0-durms;
#X obj 62 123 route trigger destination fx_route fx_amount sample send_durms, f 69;
#X obj 423 364 /;
#X obj 424 423 * 1000;
#X obj 436 477 f;
#X connect 0 0 3 1;
#X connect 0 0 6 0;
#X connect 0 1 3 2;
#X connect 0 1 6 1;
#X connect 0 2 3 3;
#X connect 0 4 3 4;
#X connect 0 5 3 5;
#X connect 1 0 5 0;
#X connect 3 0 2 0;
#X connect 3 1 2 1;
#X connect 5 0 3 0;
#X connect 5 1 2 2;
#X connect 5 2 2 3;
#X connect 5 3 2 4;
#X connect 5 4 0 0;
#X connect 5 5 8 0;
#X connect 6 0 7 0;
#X connect 7 0 8 0;
#X connect 8 0 4 0;
