#N canvas 273 243 880 537 12;
#X obj 330 130 lib/sampleLoader;
#X obj 63 16 r \$0-rec;
#X obj 78 392 lib/aux_router, f 26;
#N canvas 975 190 829 406 sound 0;
#X obj 172 303 *~ 1;
#X obj 321 229 inlet mono;
#X obj 71 354 outlet~;
#X obj 169 355 outlet~;
#X obj 70 254 tabread4~;
#X obj 197 258 tabread4~;
#X obj 382 60 inlet lname;
#X obj 483 56 inlet rname;
#X msg 381 134 set \$1;
#X msg 484 127 set \$1;
#X obj 182 64 inlet nframes;
#X obj 295 63 inlet sr;
#X obj 312 350 outlet onset;
#N canvas 740 590 888 658 line_generator 0;
#X obj 184 172 /;
#X obj 184 203 * 1000;
#X obj 152 143 t f f;
#X obj 100 196 metro;
#X msg 131 355 0 \, \$1 \$2;
#X obj 131 385 line~;
#X obj 244 207 t b f;
#X obj 184 247 / 1;
#X obj 131 271 f;
#X obj 131 310 pack f f;
#X obj 310 499 outlet tick;
#X obj 117 472 outlet~ line;
#X obj 80 14 inlet toggle_speed;
#X text 299 215 speed;
#X obj 82 83 t b f;
#X obj 310 61 inlet nframe;
#X obj 443 74 inlet sr;
#X obj 41 56 route 0;
#X msg 41 172 0;
#X connect 0 0 1 0;
#X connect 1 0 7 0;
#X connect 2 0 8 1;
#X connect 2 1 0 0;
#X connect 3 0 8 0;
#X connect 3 0 10 0;
#X connect 4 0 5 0;
#X connect 5 0 11 0;
#X connect 6 0 7 0;
#X connect 6 1 7 1;
#X connect 7 0 3 1;
#X connect 7 0 9 1;
#X connect 8 0 9 0;
#X connect 9 0 4 0;
#X connect 12 0 17 0;
#X connect 14 0 3 0;
#X connect 14 1 6 0;
#X connect 15 0 2 0;
#X connect 16 0 0 1;
#X connect 17 0 18 0;
#X connect 17 1 14 0;
#X connect 18 0 3 0;
#X restore 58 150 pd line_generator;
#X obj 24 62 inlet toggle_speed;
#X obj 381 96 symbol;
#X obj 490 91 symbol;
#X connect 0 0 3 0;
#X connect 1 0 0 1;
#X connect 4 0 0 0;
#X connect 4 0 2 0;
#X connect 5 0 3 0;
#X connect 6 0 15 0;
#X connect 7 0 16 0;
#X connect 8 0 4 0;
#X connect 9 0 5 0;
#X connect 10 0 13 1;
#X connect 11 0 13 2;
#X connect 13 0 4 0;
#X connect 13 0 5 0;
#X connect 13 1 12 0;
#X connect 14 0 13 0;
#X connect 15 0 8 0;
#X connect 16 0 9 0;
#X restore 73 259 pd sound;
#X f 18;
#X obj 400 359 s \$0-loop;
#X obj 481 233 /;
#X obj 482 318 f;
#X obj 64 75 route trigger destination fx_route fx_amount sample send_durms, f 88;
#X obj 481 282 * 1000;
#X obj 548 358 s \$0-durms;
#X connect 0 0 3 1;
#X connect 0 0 5 0;
#X connect 0 1 3 2;
#X connect 0 1 5 1;
#X connect 0 2 3 3;
#X connect 0 4 3 4;
#X connect 0 5 3 5;
#X connect 1 0 7 0;
#X connect 3 0 2 0;
#X connect 3 1 2 1;
#X connect 3 2 4 0;
#X connect 5 0 8 0;
#X connect 6 0 9 0;
#X connect 7 0 3 0;
#X connect 7 1 2 2;
#X connect 7 2 2 3;
#X connect 7 3 2 4;
#X connect 7 4 0 0;
#X connect 7 5 6 0;
#X connect 8 0 6 0;
