#N canvas 116 523 815 487 12;
#X obj 286 175 text define \$0-text;
#X msg 284 142 clear;
#X obj 83 53 r \$0-rec;
#N canvas 1075 546 598 569 add_event 0;
#X obj 20 24 inlet;
#X obj 101 436 text set \$0-text;
#X obj 185 345 loadbang;
#X msg 183 384 1e+32;
#X obj 44 217 list;
#X obj 239 156 list split 2;
#X msg 157 155 \$2-rec;
#X obj 93 106 t l l l;
#X obj 217 252 list append;
#X msg 47 164 \$1;
#X text 157 44 add_event: duration destination message;
#X connect 0 0 7 0;
#X connect 2 0 3 0;
#X connect 3 0 1 1;
#X connect 4 0 1 0;
#X connect 5 1 8 1;
#X connect 6 0 8 0;
#X connect 7 0 9 0;
#X connect 7 1 6 0;
#X connect 7 2 5 0;
#X connect 8 0 1 0;
#X connect 9 0 4 0;
#X restore 250 219 pd add_event;
#X obj 80 367 s \$0-done;
#N canvas 1220 527 380 244 simple_player 0;
#X obj 55 40 inlet play;
#X obj 198 39 inlet stop;
#X obj 56 180 outlet done;
#X msg 185 88 stop;
#X obj 56 129 text sequence \$0-text -g;
#X msg 53 79 line 0 \, auto;
#X connect 0 0 5 0;
#X connect 1 0 3 0;
#X connect 3 0 4 0;
#X connect 4 0 2 0;
#X connect 5 0 4 0;
#X restore 77 277 pd simple_player;
#N canvas 989 677 599 492 loop_player 1;
#X obj 24 42 inlet start;
#X obj 197 45 inlet stop;
#X obj 197 90 t b b;
#X msg 227 136 stop;
#X obj 203 297 outlet done;
#X obj 26 191 text sequence \$0-text -g;
#X msg 20 119 line 0 \, auto;
#X connect 0 0 6 0;
#X connect 1 0 2 0;
#X connect 2 0 4 0;
#X connect 2 1 3 0;
#X connect 3 0 5 0;
#X connect 5 1 6 0;
#X connect 6 0 5 0;
#X restore 119 222 pd loop_player;
#X obj 484 179 text tolist \$0-text;
#X obj 81 92 route play loop stop add_event clear dump;
#X obj 491 239 print;
#X connect 1 0 0 0;
#X connect 2 0 8 0;
#X connect 5 0 4 0;
#X connect 6 0 4 0;
#X connect 7 0 9 0;
#X connect 8 0 5 0;
#X connect 8 1 6 0;
#X connect 8 2 5 1;
#X connect 8 2 6 1;
#X connect 8 3 3 0;
#X connect 8 4 1 0;
#X connect 8 5 7 0;
