#N canvas 114 547 865 521 12;
#X msg 92 218 \$1 10 \, 0 100 10;
#X obj 50 129 unpack;
#X obj 92 259 vline~;
#X obj 46 333 osc~;
#X obj 45 399 *~;
#X obj 51 34 r \$0-rec;
#X obj 89 184 clip -1 1;
#X obj 45 457 lib/aux_router;
#X obj 51 76 route play destination fx_route fx_amount;
#X connect 0 0 2 0;
#X connect 1 0 3 0;
#X connect 1 1 6 0;
#X connect 2 0 4 1;
#X connect 3 0 4 0;
#X connect 4 0 7 0;
#X connect 4 0 7 1;
#X connect 5 0 8 0;
#X connect 6 0 0 0;
#X connect 8 0 1 0;
#X connect 8 1 7 2;
#X connect 8 2 7 3;
#X connect 8 3 7 4;
