#N canvas 114 547 865 521 12;
#X obj 327 418 throw~;
#X obj 303 342 *~;
#X obj 51 76 route play fx-route fx-amount;
#X msg 92 218 \$1 10 \, 0 100 10;
#X obj 50 129 unpack;
#X obj 130 296 vline~;
#X obj 46 333 osc~;
#X obj 45 399 *~;
#X obj 34 463 throw~ masterl;
#X obj 169 465 throw~ masterr;
#X obj 51 34 r \$0-rec;
#X obj 89 184 clip -1 1;
#X msg 340 344 set \$1-in;
#X obj 332 298 line~;
#X msg 347 246 \$1 10;
#X obj 521 313 print;
#X connect 1 0 0 0;
#X connect 1 0 9 0;
#X connect 2 0 4 0;
#X connect 2 1 12 0;
#X connect 2 2 14 0;
#X connect 3 0 5 0;
#X connect 4 0 6 0;
#X connect 4 1 11 0;
#X connect 5 0 7 1;
#X connect 6 0 7 0;
#X connect 7 0 8 0;
#X connect 7 0 9 0;
#X connect 7 0 1 0;
#X connect 10 0 2 0;
#X connect 11 0 3 0;
#X connect 12 0 0 0;
#X connect 13 0 1 1;
#X connect 14 0 13 0;
#X connect 14 0 15 0;
