#N canvas 49 453 862 707 12;
#X obj 186 289 vline~;
#X msg 187 223 1 \$1 \, \$2 \$3 \$4;
#X msg 82 270 0 \$1;
#X obj 83 230 f;
#X obj 189 188 pack 0 0 0 0;
#X obj 183 137 f;
#X obj 213 137 f;
#X obj 245 138 f;
#X obj 32 7 inlet;
#X obj 77 124 inlet;
#X obj 184 470 outlet~;
#X obj 83 182 t b;
#X obj 32 40 t b b b b;
#X obj 195 24 inlet;
#X obj 251 24 inlet;
#X obj 299 22 inlet;
#X obj 281 137 f;
#X obj 328 92 + 0;
#X obj 322 58 t b f;
#X obj 177 352 *~;
#X obj 414 217 control 0 1;
#X obj 411 157 inlet;
#X obj 537 163 inlet;
#X obj 540 223 control 0.1 10;
#X obj 614 114 loadbang;
#X obj 613 152 1;
#X obj 183 406 pow~;
#X connect 0 0 19 0;
#X connect 1 0 0 0;
#X connect 2 0 0 0;
#X connect 3 0 2 0;
#X connect 4 0 1 0;
#X connect 5 0 4 0;
#X connect 6 0 4 1;
#X connect 7 0 4 2;
#X connect 8 0 12 0;
#X connect 9 0 11 0;
#X connect 11 0 3 0;
#X connect 12 0 5 0;
#X connect 12 1 6 0;
#X connect 12 2 7 0;
#X connect 12 3 16 0;
#X connect 13 0 5 1;
#X connect 13 0 17 0;
#X connect 14 0 6 1;
#X connect 15 0 7 1;
#X connect 15 0 18 0;
#X connect 16 0 4 3;
#X connect 17 0 16 1;
#X connect 18 0 17 0;
#X connect 18 1 17 1;
#X connect 19 0 26 0;
#X connect 20 0 19 1;
#X connect 21 0 20 0;
#X connect 22 0 23 0;
#X connect 23 0 26 1;
#X connect 24 0 25 0;
#X connect 25 0 23 0;
#X connect 26 0 10 0;
