#N canvas 881 401 759 474 12;
#X obj 218 135 vline~;
#X obj 230 191 rpole~ 0.999;
#X obj 465 181 samplerate~;
#X obj 472 122 loadbang;
#X obj 498 151 bng 19 250 50 0 empty empty empty 0 -10 0 12 #fcfcfc #000000 #000000;
#X obj 454 316 *;
#X obj 369 302 -6.90775;
#X obj 411 366 /;
#X obj 384 211 t b f;
#X obj 372 403 exp;
#X obj 224 378 outlet~ env;
#X obj 202 -21 inlet amp;
#X obj 358 51 inlet time;
#X obj 321 32 /;
#X obj 231 42 pack;
#X obj 308 -56 t b f;
#X msg 203 91 \$1 \, 0 0 \$2;
#X obj 320 -12 2000;
#X connect 0 0 1 0;
#X connect 1 0 10 0;
#X connect 2 0 5 1;
#X connect 2 0 15 0;
#X connect 3 0 2 0;
#X connect 4 0 2 0;
#X connect 5 0 7 1;
#X connect 6 0 7 0;
#X connect 7 0 9 0;
#X connect 8 0 6 0;
#X connect 8 1 5 0;
#X connect 9 0 1 1;
#X connect 11 0 14 0;
#X connect 12 0 8 0;
#X connect 13 0 14 1;
#X connect 14 0 16 0;
#X connect 15 0 17 0;
#X connect 15 1 13 1;
#X connect 16 0 0 0;
#X connect 17 0 13 0;
