#N canvas 740 550 800 734 12;
#X obj 64 54 inlet~;
#X obj 245 50 inlet~;
#X obj 81 248 throw~;
#X obj 239 260 throw~;
#X obj 292 147 inlet;
#X obj 427 40 inlet;
#X obj 77 120 *~;
#X obj 236 127 *~;
#X obj 424 95 control -1 1;
#X obj 290 183 router_messages;
#X connect 0 0 6 0;
#X connect 1 0 7 0;
#X connect 4 0 9 0;
#X connect 5 0 8 0;
#X connect 6 0 2 0;
#X connect 7 0 3 0;
#X connect 8 0 7 1;
#X connect 8 0 6 1;
#X connect 9 0 2 0;
#X connect 9 1 3 0;
