#N canvas 583 108 709 572 12;
#X obj 348 210 inlet destination;
#X obj 188 82 inlet message;
#N canvas 386 528 472 457 message_setter 0;
#X obj 197 20 inlet;
#X obj 101 387 outlet;
#X msg 181 100 set;
#X obj 168 192 list append;
#X obj 154 276 list trim;
#X obj 200 53 t b a;
#X connect 0 0 5 0;
#X connect 2 0 3 0;
#X connect 3 0 4 0;
#X connect 4 0 1 0;
#X connect 5 0 2 0;
#X connect 5 1 3 1;
#X restore 175 157 pd message_setter;
#X obj 97 85 inlet bang;
#X obj 182 325 s;
#X msg 345 251 symbol \$1-rec;
#X msg 167 228 not connected;
#X connect 0 0 5 0;
#X connect 1 0 2 0;
#X connect 2 0 6 0;
#X connect 3 0 6 0;
#X connect 5 0 4 1;
#X connect 6 0 4 0;
