#N canvas 183 573 596 398 12;
#X obj 79 248 lib/message_sender;
#N canvas 204 624 754 418 number_handler 0;
#X obj 63 43 inlet number;
#X obj 44 307 outlet bang;
#X obj 211 44 inlet numbers;
#N canvas 374 813 450 300 iterate 0;
#X obj 69 119 until;
#X obj 82 202 list store;
#X obj 103 86 t b b l;
#X obj 69 144 f;
#X obj 107 145 + 1;
#X msg 126 119 0, f 2;
#X msg 69 175 get \$1 1;
#X obj 102 45 inlet list;
#X obj 83 239 outlet number;
#X connect 0 0 3 0;
#X connect 1 0 8 0;
#X connect 1 1 0 1;
#X connect 2 0 0 0;
#X connect 2 1 5 0;
#X connect 2 2 1 1;
#X connect 3 0 4 0;
#X connect 3 0 6 0;
#X connect 4 0 3 1;
#X connect 5 0 3 1;
#X connect 6 0 1 0;
#X connect 7 0 2 0;
#X restore 59 171 pd iterate;
#X obj 56 213 ==;
#X obj 52 256 select 1;
#X obj 63 133 list;
#X obj 64 84 t b f;
#X connect 0 0 7 0;
#X connect 2 0 6 1;
#X connect 3 0 4 0;
#X connect 4 0 5 0;
#X connect 5 0 1 0;
#X connect 6 0 3 0;
#X connect 7 0 6 0;
#X connect 7 1 4 1;
#X restore 82 105 pd number_handler;
#X obj 79 56 inlet num;
#X obj 200 55 inlet nums;
#X obj 320 56 inlet message;
#X obj 445 57 inlet destination;
#X connect 1 0 0 0;
#X connect 2 0 1 0;
#X connect 3 0 1 1;
#X connect 4 0 0 1;
#X connect 5 0 0 2;
