#N canvas 390 134 683 525 12;
#X obj 216 85 array define \$0-sl;
#X obj 383 87 array define \$0-sr;
#X obj 35 57 loadbang;
#X obj 37 125 f \$0;
#X obj 180 417 outlet d0;
#X obj 37 175 pack s f;
#X msg 42 205 read -resize \$1 \$2-sl \$2-sr;
#X obj 37 235 soundfiler;
#X obj 100 268 unpack f f f;
#X obj 181 318 expr if ($f1 == 1 \, 1 \, 0);
#X obj 34 417 outlet nframes;
#X connect 2 0 3 0;
#X connect 3 0 4 0;
#X connect 3 0 5 0;
#X connect 5 0 6 0;
#X connect 6 0 7 0;
#X connect 7 0 10 0;
#X connect 7 1 8 0;
#X connect 8 2 9 0;
