#N canvas 786 507 825 602 12;
#X obj 42 255 vline~;
#X obj 163 17 inlet params;
#X obj 40 29 inlet amp;
#X obj 303 145 inlet curve;
#X obj 43 542 outlet~;
#X obj 117 142 list;
#X msg 52 205 0 \, 1 \$1 0 \, 0 \$2 \$1;
#X obj 111 320 line~;
#X msg 110 266 \$1 1;
#X obj 43 98 t b f;
#X obj 46 377 *~;
#X obj 35 308 pow~ 2;
#X connect 0 0 11 0;
#X connect 1 0 5 1;
#X connect 2 0 9 0;
#X connect 3 0 11 1;
#X connect 5 0 6 0;
#X connect 6 0 0 0;
#X connect 7 0 10 1;
#X connect 8 0 7 0;
#X connect 9 0 5 0;
#X connect 9 1 8 0;
#X connect 10 0 4 0;
#X connect 11 0 10 0;
