#N canvas 795 334 652 558 12;
#X msg 310 243 set \$1-inl;
#X msg 445 246 set \$1-inr;
#X msg 153 222 masterr;
#X msg 63 220 masterl;
#X obj 328 69 inlet;
#X obj 147 160 route master none;
#X msg 239 247 set;
#X obj 143 416 outlet;
#X obj 238 420 outlet;
#X connect 0 0 7 0;
#X connect 1 0 8 0;
#X connect 2 0 8 0;
#X connect 3 0 7 0;
#X connect 4 0 5 0;
#X connect 5 0 2 0;
#X connect 5 0 3 0;
#X connect 5 1 6 0;
#X connect 5 2 1 0;
#X connect 5 2 0 0;
#X connect 6 0 7 0;
#X connect 6 0 8 0;
