#N canvas 1099 664 683 525 12;
#X obj 216 85 array define \$0-sl;
#X obj 383 87 array define \$0-sr;
#X obj 92 55 loadbang;
#X obj 95 129 f \$0;
#X obj 37 192 pack s f;
#X msg 42 222 read -resize \$1 \$2-sl \$2-sr;
#X obj 37 252 soundfiler;
#X obj 100 285 unpack f f f;
#X obj 181 335 expr if ($f1 == 1 \, 1 \, 0);
#X obj 34 434 outlet nframes;
#X obj 316 260 outlet lname;
#X obj 481 259 outlet rname;
#X msg 317 215 \$1-sl;
#X msg 486 212 \$1-sr;
#X obj 94 97 t b b;
#X obj 91 153 t f f;
#X obj 12 128 inlet path;
#X obj 242 267 outlet d0;
#X obj 176 497 outlet mono;
#X obj 94 469 outlet sr;
#X connect 2 0 14 0;
#X connect 3 0 15 0;
#X connect 4 0 5 0;
#X connect 5 0 6 0;
#X connect 6 0 9 0;
#X connect 6 1 7 0;
#X connect 7 0 19 0;
#X connect 7 2 8 0;
#X connect 8 0 18 0;
#X connect 12 0 10 0;
#X connect 13 0 11 0;
#X connect 14 0 3 0;
#X connect 15 0 4 1;
#X connect 15 1 12 0;
#X connect 15 1 13 0;
#X connect 15 1 17 0;
#X connect 16 0 4 0;
