#N canvas 855 367 487 359 12;
#X obj 49 41 inlet~ l;
#X obj 148 43 inlet~ r;
#X obj 53 253 throw~;
#X obj 149 250 throw~;
#X obj 251 161 router_messages;
#X obj 248 40 inlet;
#X connect 0 0 2 0;
#X connect 1 0 3 0;
#X connect 4 0 2 0;
#X connect 4 1 3 0;
#X connect 5 0 4 0;
