#N canvas 205 607 753 694 12;
#X obj 249 41 inlet;
#X obj 46 173 inlet~;
#X obj 170 82 inlet~;
#X obj 249 83 router_messages;
#X obj 48 259 throw~ mainl;
#X obj 166 258 throw~ mainl;
#X connect 0 0 3 0;
#X connect 1 0 4 0;
#X connect 2 0 5 0;
#X connect 3 0 4 0;
#X connect 3 1 5 0;
